# File created by Blade
# Date/Time:  Mon Sep 22 16:45:27 2014
# Frame Rate: 120.000 fps
#------------------------------------------------------
:FULLY-SPECIFIED
:DEGREES
4185
root 3.806785 37.310207 7.535620 -4.127467 -1.685405 3.510718
RightUpLeg 5.002168 -6.846637 -1.392592
RightLeg 31.788103 -0.000000 -0.000000
RightFoot -9.094133 12.857978 29.324139
RightToeBase 11.766336 -0.000000 -0.000000
LeftUpLeg 9.858790 -7.481772 -3.880904
LeftLeg -5.425251 -0.000000 0.000000
LeftFoot -8.287867 27.255085 -19.166146
LeftToeBase 7.216490 -0.000000 -0.000000
Spine 13.032439 0.241711 -4.465252
RightShoulder -3.866843 -12.135705 -19.697418
RightArm 3.415318 42.301445 47.003421
RightForeArm 18.305342 -0.000000 87.773667
RightHand -4.003331 -0.000000 -31.137350
RightHandThumb1 -24.326973 -0.000000 -32.862282
LeftShoulder -26.786200 29.334310 5.891938
LeftArm 33.455169 -31.260924 -56.660944
LeftForeArm 34.221263 -0.000000 39.868689
LeftHand -19.416633 0.000000 4.725729
LeftHandThumb1 -26.253704 0.000000 33.147579
Head -6.610821 7.209343 2.215013
4186
root 3.787686 37.301914 7.600307 -4.138651 -1.798094 3.322373
RightUpLeg 4.003669 -6.995419 -1.501906
RightLeg 33.679976 -0.000000 -0.000000
RightFoot -7.433733 13.588340 30.991472
RightToeBase 10.604227 -0.000000 -0.000000
LeftUpLeg 10.110033 -7.434480 -3.688911
LeftLeg -5.665617 -0.000000 0.000000
LeftFoot -8.379551 27.355774 -19.075870
LeftToeBase 7.438326 -0.000000 -0.000000
Spine 12.972044 0.178937 -4.528830
RightShoulder -3.960523 -11.842530 -19.919189
RightArm 2.916822 42.404933 46.113305
RightForeArm 17.070262 -0.000000 86.969680
RightHand -4.117872 -0.000000 -30.210930
RightHandThumb1 -24.326973 -0.000000 -32.862282
LeftShoulder -26.692202 29.208118 6.203319
LeftArm 33.637099 -31.849897 -56.510322
LeftForeArm 34.334684 -0.000000 39.295702
LeftHand -19.481967 -0.000000 4.625711
LeftHandThumb1 -26.253704 0.000000 33.147579
Head -6.734319 7.165582 2.476313
4187
root 3.771682 37.292038 7.655447 -4.090945 -1.993171 3.177261
RightUpLeg 2.894410 -6.947310 -1.611602
RightLeg 35.560611 -0.000000 -0.000000
RightFoot -6.114835 14.112183 32.542890
RightToeBase 8.431345 -0.000000 -0.000000
LeftUpLeg 10.340299 -7.460716 -3.552331
LeftLeg -5.996797 -0.000000 0.000000
LeftFoot -8.480268 27.596740 -19.108940
LeftToeBase 7.568533 -0.000000 -0.000000
Spine 12.846363 0.179845 -4.603548
RightShoulder -4.045386 -11.615711 -20.176857
RightArm 2.599272 42.617649 45.373027
RightForeArm 15.978988 -0.000000 86.123993
RightHand -4.502015 -0.000000 -29.157487
RightHandThumb1 -24.326973 -0.000000 -32.862282
LeftShoulder -26.641312 29.101905 6.468110
LeftArm 33.945908 -32.530688 -56.511413
LeftForeArm 34.637398 0.000000 38.674660
LeftHand -19.482483 -0.000000 4.250591
LeftHandThumb1 -26.253704 0.000000 33.147579
Head -6.882036 7.259203 2.684591
4188
root 3.751672 37.282791 7.710610 -4.054515 -2.240740 3.010262
RightUpLeg 1.904733 -6.743683 -1.673918
RightLeg 37.146116 -0.000000 -0.000000
RightFoot -5.025673 14.328443 33.866042
RightToeBase 6.123043 -0.000000 -0.000000
LeftUpLeg 10.555981 -7.261679 -3.349404
LeftLeg -6.268785 -0.000000 0.000000
LeftFoot -8.547264 27.613256 -19.131209
LeftToeBase 7.589471 -0.000000 -0.000000
Spine 12.725014 0.236038 -4.625170
RightShoulder -4.081699 -11.365706 -20.457430
RightArm 2.185330 42.817728 44.589673
RightForeArm 15.070667 -0.000000 85.287041
RightHand -4.586129 -0.000000 -27.892976
RightHandThumb1 -24.326973 -0.000000 -32.862282
LeftShoulder -26.543531 29.036565 6.725280
LeftArm 34.161954 -33.148858 -56.425814
LeftForeArm 34.828155 -0.000000 38.090094
LeftHand -19.498039 -0.000000 4.233739
LeftHandThumb1 -26.253704 0.000000 33.147579
Head -6.988102 7.302507 2.853530
